<svg width="2266" height="249" viewBox="0 0 2266 249" fill="none" xmlns="http://www.w3.org/2000/svg">
<path d="M0 244L77.6831 3H134.267L210.032 244H165.916L146.735 185H58.5021L40.2801 244H0ZM102.618 40L69.0517 152H137.144L102.618 40ZM219.623 244L294.429 120L224.418 3H273.33L323.2 89L372.112 3H416.228L348.136 119L421.982 244H373.071L318.405 150L263.739 244H219.623ZM431.573 244L508.297 3H564.881L641.605 244H597.489L578.308 185H490.075L471.853 244H431.573ZM534.191 40L499.666 152H568.717L534.191 40ZM735.592 244V3H793.135L853.555 168L913.976 3H970.56V244H927.402V62L858.351 244H844.924L773.954 62V244H735.592ZM996.454 244L1074.14 3H1130.72L1207.45 244H1162.37L1144.15 185H1054.96L1036.73 244H996.454ZM1100.03 40L1065.51 152H1133.6L1100.03 40ZM1232.38 244V3H1284.17L1381.99 177V3H1421.31V244H1376.24L1271.7 59V244H1232.38ZM1544.07 248C1513.38 248 1490.37 241 1475.98 227C1468.33 219.549 1462.18 210.581 1457.9 200.622C1453.62 190.662 1451.29 179.911 1451.04 169H1492.28C1494.2 184 1498.04 195 1505.71 202C1513.38 210 1525.85 214 1544.07 214C1556.54 214 1567.09 211 1575.72 204C1583.39 197 1587.23 188 1587.23 177C1587.23 166 1584.35 157 1577.64 152C1570.93 147 1558.46 143 1539.28 140C1510.51 136 1489.41 128 1476.94 118C1463.51 108 1457.76 91 1457.76 69C1457.76 49 1465.43 33 1479.82 20C1495.16 7 1514.34 0 1538.32 0C1563.25 0 1583.39 6 1597.78 18C1612.16 30 1620.8 47 1622.71 70H1583.39C1580.52 57 1576.68 48 1569.01 43C1562.29 37 1551.74 34 1538.32 34C1525.85 34 1515.3 37 1508.59 43C1501.87 48 1498.04 56 1498.04 65C1498.04 76 1501.87 84 1507.63 89C1514.34 94 1526.81 98 1545.99 101C1574.76 105 1595.86 112 1609.29 123C1622.71 133 1629.43 150 1629.43 173C1629.43 194 1621.76 212 1605.45 226C1588.28 240.941 1566.43 248.772 1544.07 248ZM1635.18 244L1712.87 3H1769.45L1846.17 244H1801.1L1782.88 185H1693.68L1675.46 244H1635.18ZM1738.76 40L1704.23 152H1772.33L1738.76 40ZM1872.07 244V3H1949.75C1976.6 3 1997.7 9 2013.05 21C2028.39 32 2036.07 50 2036.07 74V75C2036.07 109 2018.8 131 1984.28 140L2049.49 244H2003.46L1942.08 147H1915.22V244H1872.07ZM1915.22 115H1949.75C1978.52 115 1993.87 102 1993.87 76V75C1993.87 62 1990.03 52 1982.36 47C1974.69 41 1964.14 38 1949.75 38H1915.22V115ZM2117.58 209H2143.48C2168.41 209 2187.6 202 2201.02 187C2213.49 173 2220.2 152 2220.2 124V122C2220.2 66 2194.31 38 2142.52 38H2117.58V209ZM2074.43 244V3H2145.4C2184.72 3 2214.45 14 2234.59 35C2254.73 56 2265.28 85 2265.28 121V124C2265.28 161 2254.73 190 2234.59 212C2213.49 233 2183.76 244 2144.44 244H2074.43Z" fill="white"/>
</svg>
