<svg width="27" height="24" viewBox="0 0 27 24" fill="none" xmlns="http://www.w3.org/2000/svg">
<g clip-path="url(#clip0_8_71)">
<path d="M9.80606 18.5551C9.80606 18.5551 8.76824 19.1161 10.5275 19.2766C12.6453 19.5166 13.7734 19.4768 16.1173 19.0763C16.5884 19.3328 17.0866 19.5475 17.6048 19.7176C12.3314 21.7216 5.65818 19.5976 9.80606 18.5551ZM9.13106 15.9503C9.13106 15.9503 8.00381 16.7116 9.76218 16.8728C12.0614 17.0731 13.8645 17.1128 16.9762 16.5526C17.2789 16.8254 17.6494 17.0312 18.0579 17.1533C11.7011 18.8363 4.57818 17.3131 9.13106 15.9503ZM21.5738 20.5178C21.5738 20.5178 22.34 21.0788 20.7174 21.5198C17.6968 22.3223 8.04937 22.5623 5.34431 21.5198C4.39762 21.1598 6.20071 20.6386 6.77868 20.5583C7.36509 20.4383 7.68149 20.4383 7.68149 20.4383C6.64368 19.7971 0.783837 21.7606 4.70643 22.3208C15.4811 23.8838 24.3624 21.6398 21.5671 20.5178H21.5738ZM10.2937 13.2248C10.2937 13.2248 5.37974 14.2673 8.53537 14.6273C9.8879 14.7878 12.5474 14.7473 15.0272 14.5876C17.0556 14.4271 19.0856 14.1076 19.0856 14.1076C19.0856 14.1076 18.3642 14.3881 17.8681 14.6686C12.8646 15.8311 3.26109 15.3098 6.01171 14.1076C8.35565 13.1056 10.2946 13.2263 10.2946 13.2263L10.2937 13.2248ZM19.0856 17.5928C24.1346 15.2678 21.7907 13.0253 20.1673 13.3051C19.7623 13.3853 19.5809 13.4656 19.5809 13.4656C19.5809 13.4656 19.7159 13.2256 20.0315 13.1453C23.2326 12.1433 25.7571 16.1506 18.9936 17.7128C18.9936 17.7128 19.0384 17.6731 19.0839 17.5928H19.0856ZM10.7916 23.9243C15.66 24.2048 23.0993 23.7638 23.2791 21.7193C23.2791 21.7193 22.9188 22.5218 19.267 23.1218C15.1191 23.8028 9.97987 23.7218 6.95924 23.2823C6.95924 23.2823 7.59037 23.7631 10.7916 23.9243Z" fill="#4E7896"/>
<path d="M16.028 0.000732422C16.028 0.000732422 18.8233 2.52523 13.3685 6.33223C8.99533 9.41773 12.3771 11.181 13.3685 13.185C10.7984 11.1412 8.95061 9.33748 10.2129 7.65523C12.0607 5.16973 17.1552 3.97498 16.028 0.000732422ZM14.5936 11.502C15.9014 12.8242 14.2333 14.0265 14.2333 14.0265C14.2333 14.0265 17.5695 12.504 16.0364 10.62C14.6392 8.81698 13.5558 7.93498 19.4173 4.92973C19.4173 4.92973 10.1757 6.97348 14.5936 11.502Z" fill="#F58219"/>
</g>
<defs>
<clipPath id="clip0_8_71">
<rect width="27" height="24" fill="white"/>
</clipPath>
</defs>
</svg>
