<svg width="445" height="59" viewBox="0 0 445 59" fill="none" xmlns="http://www.w3.org/2000/svg">
<g clip-path="url(#clip0_81_63)">
<path d="M397.853 24.536V47H390.493V14.552H397.469V18.84C399.475 17.0907 401.331 15.832 403.037 15.064C404.744 14.296 406.493 13.912 408.285 13.912C412.253 13.912 414.963 15.6613 416.413 19.16C418.547 17.2827 420.531 15.9387 422.365 15.128C424.2 14.3173 426.056 13.912 427.933 13.912C430.92 13.912 433.202 14.9147 434.781 16.92C436.36 18.8827 437.149 21.656 437.149 25.24V47H429.789V26.136C429.789 22.552 428.424 20.76 425.693 20.76C424.627 20.76 423.453 21.016 422.173 21.528C420.893 22.04 419.336 23.0427 417.501 24.536V47H410.141V26.136C410.141 22.552 408.776 20.76 406.045 20.76C404.978 20.76 403.805 21.016 402.525 21.528C401.245 22.04 399.688 23.0427 397.853 24.536Z" fill="white"/>
<path d="M382.24 28.824V32.664C382.24 37.1867 381.003 40.8133 378.528 43.544C376.054 46.2747 372.555 47.64 368.032 47.64C363.51 47.64 360.011 46.2747 357.536 43.544C355.062 40.8133 353.824 37.1867 353.824 32.664V28.824C353.824 24.3013 355.04 20.696 357.472 18.008C359.947 15.2773 363.467 13.912 368.032 13.912C372.598 13.912 376.096 15.2773 378.528 18.008C381.003 20.696 382.24 24.3013 382.24 28.824ZM374.688 28.824C374.688 26.2213 374.112 24.1947 372.96 22.744C371.808 21.2507 370.166 20.504 368.032 20.504C365.899 20.504 364.256 21.2507 363.104 22.744C361.952 24.1947 361.376 26.2213 361.376 28.824V32.664C361.376 35.2667 361.952 37.3147 363.104 38.808C364.256 40.3013 365.899 41.048 368.032 41.048C370.166 41.048 371.808 40.3013 372.96 38.808C374.112 37.3147 374.688 35.2667 374.688 32.664V28.824Z" fill="white"/>
<path d="M329.591 29.784C329.591 32.8986 330.273 35.4586 331.639 37.464C333.004 39.4266 335.244 40.408 338.359 40.408C339.639 40.408 340.961 40.2373 342.327 39.896C343.735 39.5546 345.463 38.9786 347.511 38.168L349.879 44.824C347.575 45.848 345.441 46.5733 343.479 47C341.559 47.4266 339.703 47.64 337.911 47.64C334.327 47.64 331.319 46.872 328.887 45.336C326.497 43.8 324.705 41.688 323.511 39C322.316 36.312 321.719 33.24 321.719 29.784V20.632C321.719 17.176 322.316 14.104 323.511 11.416C324.705 8.72797 326.497 6.6373 328.887 5.14397C331.319 3.60797 334.327 2.83997 337.911 2.83997C339.66 2.83997 341.473 3.0533 343.351 3.47997C345.228 3.86397 347.276 4.54664 349.495 5.52797L347.127 12.312C345.164 11.5013 343.521 10.9253 342.199 10.584C340.876 10.2426 339.596 10.072 338.359 10.072C335.244 10.072 333.004 11.0533 331.639 13.016C330.273 14.9786 329.591 17.5173 329.591 20.632V29.784Z" fill="white"/>
<path d="M316.826 45.912C315.716 46.424 314.436 46.8293 312.986 47.128C311.535 47.4693 310.063 47.64 308.57 47.64C306.095 47.64 304.111 47.128 302.618 46.104C301.124 45.08 300.036 43.6507 299.354 41.816C298.714 39.9813 298.394 37.8907 298.394 35.544V20.952H293.146V14.552H298.394V6.104H305.754V14.552H315.866V20.952H305.754V35.544C305.754 37.5067 306.116 38.872 306.842 39.64C307.61 40.3653 308.697 40.728 310.105 40.728C310.788 40.728 311.514 40.664 312.282 40.536C313.092 40.3653 313.988 40.088 314.97 39.704L316.826 45.912Z" fill="white"/>
<path d="M289.053 28.824V32.664C289.053 37.1867 287.815 40.8133 285.341 43.544C282.866 46.2747 279.367 47.64 274.845 47.64C270.322 47.64 266.823 46.2747 264.349 43.544C261.874 40.8133 260.637 37.1867 260.637 32.664V28.824C260.637 24.3013 261.853 20.696 264.285 18.008C266.759 15.2773 270.279 13.912 274.845 13.912C279.41 13.912 282.909 15.2773 285.341 18.008C287.815 20.696 289.053 24.3013 289.053 28.824ZM281.501 28.824C281.501 26.2213 280.925 24.1947 279.773 22.744C278.621 21.2507 276.978 20.504 274.845 20.504C272.711 20.504 271.069 21.2507 269.917 22.744C268.765 24.1947 268.189 26.2213 268.189 28.824V32.664C268.189 35.2667 268.765 37.3147 269.917 38.808C271.069 40.3013 272.711 41.048 274.845 41.048C276.978 41.048 278.621 40.3013 279.773 38.808C280.925 37.3147 281.501 35.2667 281.501 32.664V28.824Z" fill="white"/>
<path d="M222.578 47V3.47998H237.298C242.503 3.47998 246.471 4.93065 249.202 7.83198C251.933 10.7333 253.298 15 253.298 20.632V29.784C253.298 35.4586 251.933 39.7466 249.202 42.648C246.471 45.5493 242.503 47 237.298 47H222.578ZM236.978 10.84H230.258V39.64H236.978C240.007 39.64 242.162 38.8933 243.442 37.4C244.765 35.9066 245.426 33.368 245.426 29.784V20.632C245.426 17.0906 244.765 14.5733 243.442 13.08C242.162 11.5866 240.007 10.84 236.978 10.84Z" fill="white"/>
<path d="M201.518 41.24C203.097 41.24 204.398 40.984 205.422 40.472C206.446 39.9173 206.958 39.1067 206.958 38.04C206.958 37.1013 206.617 36.376 205.934 35.864C205.294 35.3093 204.121 34.8187 202.414 34.392L198.766 33.432C195.95 32.7067 193.86 31.4907 192.494 29.784C191.172 28.0773 190.51 26.0507 190.51 23.704C190.51 20.9307 191.47 18.6053 193.39 16.728C195.31 14.8507 198.276 13.912 202.286 13.912C203.908 13.912 205.614 14.104 207.406 14.488C209.198 14.872 211.076 15.4907 213.038 16.344L210.926 22.616C209.134 21.7627 207.513 21.1653 206.062 20.824C204.612 20.4827 203.332 20.312 202.222 20.312C199.193 20.312 197.678 21.336 197.678 23.384C197.678 24.1947 197.934 24.8347 198.446 25.304C199.001 25.7733 200.004 26.2 201.454 26.584L205.102 27.544C208.217 28.3547 210.478 29.592 211.886 31.256C213.337 32.92 214.062 35.0107 214.062 37.528C214.062 40.5147 213.038 42.9467 210.99 44.824C208.985 46.7013 205.806 47.64 201.454 47.64C197.742 47.64 193.838 46.7867 189.742 45.08L191.726 39C193.732 39.8107 195.545 40.3867 197.166 40.728C198.788 41.0693 200.238 41.24 201.518 41.24Z" fill="white"/>
<path d="M175.321 47V42.712C173.358 44.4187 171.524 45.6773 169.817 46.488C168.11 47.256 166.382 47.64 164.633 47.64C161.732 47.64 159.492 46.6587 157.913 44.696C156.334 42.6907 155.545 39.896 155.545 36.312V14.552H162.905V35.416C162.905 39 164.228 40.792 166.873 40.792C167.94 40.792 169.092 40.536 170.329 40.024C171.609 39.512 173.145 38.5307 174.937 37.08V14.552H182.297V47H175.321Z" fill="white"/>
<path d="M138.113 37.848V-0.359985H145.473V37.848C145.473 38.488 145.623 39.1067 145.921 39.704C146.263 40.2587 146.903 40.536 147.841 40.536H148.865V47.32H147.073C144.641 47.32 142.785 46.8507 141.505 45.912C140.225 44.9733 139.329 43.7787 138.817 42.328C138.348 40.8773 138.113 39.384 138.113 37.848Z" fill="white"/>
<path d="M102.516 47V3.47998H116.852C121.417 3.47998 124.83 4.63198 127.092 6.93598C129.396 9.23998 130.548 12.312 130.548 16.152V19.544C130.548 23.384 129.396 26.4773 127.092 28.824C124.83 31.128 121.417 32.28 116.852 32.28H110.196V47H102.516ZM116.852 10.84H110.196V24.92H116.852C118.729 24.92 120.158 24.4506 121.14 23.512C122.164 22.5733 122.676 21.2506 122.676 19.544V16.152C122.676 14.488 122.164 13.1866 121.14 12.248C120.158 11.3093 118.729 10.84 116.852 10.84Z" fill="white"/>
<path d="M95.638 45.912C94.5287 46.424 93.2487 46.8293 91.798 47.128C90.3473 47.4693 88.8753 47.64 87.382 47.64C84.9073 47.64 82.9233 47.128 81.43 46.104C79.9367 45.08 78.8487 43.6507 78.166 41.816C77.526 39.9813 77.206 37.8907 77.206 35.544V20.952H71.958V14.552H77.206V6.104H84.566V14.552H94.678V20.952H84.566V35.544C84.566 37.5067 84.9287 38.872 85.654 39.64C86.422 40.3653 87.51 40.728 88.918 40.728C89.6007 40.728 90.326 40.664 91.094 40.536C91.9047 40.3653 92.8007 40.088 93.782 39.704L95.638 45.912Z" fill="white"/>
<path d="M67.3827 45.144C65.1641 46.04 63.0734 46.68 61.1107 47.064C59.1481 47.448 57.2921 47.64 55.5427 47.64C50.7214 47.64 47.0734 46.2747 44.5987 43.544C42.124 40.8133 40.8867 37.1867 40.8867 32.664V28.824C40.8867 25.7947 41.4414 23.1707 42.5507 20.952C43.66 18.7333 45.2387 17.0053 47.2867 15.768C49.3347 14.5307 51.7454 13.912 54.5187 13.912C56.7801 13.912 58.8921 14.3813 60.8547 15.32C62.8601 16.216 64.4814 17.6453 65.7187 19.608C66.9987 21.528 67.6387 24.0027 67.6387 27.032C67.6387 27.928 67.5747 28.888 67.4467 29.912C67.3187 30.8933 67.1054 31.9387 66.8067 33.048H47.9907C48.0761 35.6933 48.7374 37.6773 49.9747 39C51.2121 40.3227 53.1961 40.984 55.9267 40.984C57.3774 40.984 58.8707 40.8133 60.4067 40.472C61.9854 40.1307 63.6067 39.6187 65.2707 38.936L67.3827 45.144ZM54.5187 20.12C52.5561 20.12 51.0201 20.76 49.9107 22.04C48.8441 23.2773 48.2254 25.0693 48.0547 27.416H60.3427C60.3854 27.2027 60.4067 27.0107 60.4067 26.84C60.4067 26.6267 60.4067 26.4347 60.4067 26.264C60.4067 24.216 59.8307 22.68 58.6787 21.656C57.5267 20.632 56.1401 20.12 54.5187 20.12Z" fill="white"/>
<path d="M0.015625 47V3.47998H7.05563C10.4263 7.87465 13.6263 12.5253 16.6556 17.432C19.685 22.296 22.437 27.3093 24.9116 32.472L24.3356 19.48V3.47998H31.6956V47H24.6556C21.925 41.624 19.0876 36.2266 16.1436 30.808C13.2423 25.3466 10.149 20.2053 6.86363 15.384L7.37563 30.36V47H0.015625Z" fill="white"/>
</g>
<defs>
<clipPath id="clip0_81_63">
<rect width="445" height="59" fill="white"/>
</clipPath>
</defs>
</svg>
