<svg width="131" height="28" viewBox="0 0 131 28" fill="none" xmlns="http://www.w3.org/2000/svg">
<g clip-path="url(#clip0_84_135)">
<path d="M80.9512 4.83H84.3634C86.1353 4.76778 87.8555 5.58911 89.1526 7.11667C90.4472 8.64111 91.093 10.6291 91.0911 13.0791C91.0887 15.5291 90.4429 17.5124 89.1526 19.0291C87.8553 20.5566 86.1352 21.3779 84.3634 21.3158H80.9512V4.83ZM82.22 19.8909H84.3634C85.0827 19.9226 85.7999 19.7724 86.4727 19.4491C87.1455 19.1257 87.7606 18.6358 88.2817 18.0079C89.3143 16.7494 89.8309 15.1068 89.8309 13.0791C89.8309 11.0507 89.3143 9.40956 88.2817 8.15422C87.762 7.5222 87.1477 7.02796 86.4748 6.70058C85.8019 6.3732 85.084 6.21928 84.3634 6.24789H82.22V19.8909ZM93.2948 6.59478C93.2097 6.48666 93.1426 6.35806 93.0975 6.21658C93.0524 6.07511 93.0302 5.92363 93.0321 5.77111C93.0312 5.46715 93.1257 5.17514 93.2948 4.95911C93.3754 4.84918 93.4734 4.76191 93.5824 4.70296C93.6915 4.64401 93.8091 4.61468 93.9276 4.61689C94.0462 4.61409 94.164 4.64315 94.2731 4.70214C94.3822 4.76113 94.4801 4.84872 94.5605 4.95911C94.688 5.11941 94.775 5.32409 94.8103 5.54709C94.8455 5.77009 94.8275 6.00132 94.7585 6.21133C94.7124 6.35056 94.6454 6.47733 94.5605 6.58311C94.4803 6.69377 94.3823 6.78158 94.2732 6.84071C94.1641 6.89985 94.0463 6.92896 93.9276 6.92611C93.8098 6.92853 93.6929 6.90038 93.584 6.84339C93.4752 6.7864 93.3767 6.70179 93.2948 6.59478ZM94.5242 10.2962V21.35H93.3187V10.2962H94.5242ZM106.045 10.2962V21.35C106.053 22.4276 105.914 23.4989 105.635 24.5171C105.422 25.3164 105.05 26.0323 104.553 26.5946C104.104 27.0824 103.581 27.4473 103.015 27.6663C102.402 27.8958 101.765 28.0078 101.125 27.9977C100.368 28.0188 99.6187 27.7907 98.9519 27.3355C98.285 26.8804 97.7231 26.2139 97.3213 25.4014L98.226 24.5552C98.5133 25.2063 98.9358 25.7457 99.4479 26.1152C99.9599 26.4848 100.542 26.6704 101.131 26.6521C103.591 26.6521 104.827 24.8842 104.839 21.35V19.1574C104.465 19.9292 103.934 20.5599 103.302 20.9837C102.43 21.5473 101.44 21.7504 100.472 21.5644C99.5039 21.3783 98.6064 20.8126 97.9062 19.9469C97.4744 19.4099 97.1316 18.7694 96.8977 18.063C96.6638 17.3566 96.5435 16.5983 96.5439 15.8324C96.544 15.0666 96.6645 14.3084 96.8984 13.6019C97.1323 12.8954 97.4748 12.2548 97.9062 11.7172C98.6065 10.8519 99.504 10.2863 100.472 10.1003C101.44 9.91428 102.43 10.1172 103.302 10.6804C103.935 11.1043 104.466 11.7363 104.839 12.5098V10.3141L106.045 10.2962ZM101.309 11.3594C100.842 11.3496 100.379 11.4593 99.9461 11.682C99.5136 11.9047 99.1212 12.2358 98.7925 12.6552C98.295 13.2775 97.9558 14.0734 97.8183 14.9409C97.6808 15.8085 97.7512 16.7083 98.0206 17.5249C98.1996 18.067 98.4622 18.5593 98.7925 18.9716C99.4621 19.8019 100.362 20.267 101.3 20.267C102.238 20.267 103.138 19.8019 103.808 18.9716C104.139 18.5589 104.401 18.0673 104.58 17.5252C104.759 16.983 104.851 16.4013 104.851 15.8138C104.851 15.2263 104.759 14.6448 104.58 14.1027C104.401 13.5607 104.138 13.069 103.808 12.656C103.483 12.2372 103.093 11.9063 102.664 11.6834C102.234 11.4606 101.773 11.3503 101.309 11.3594ZM108.697 6.59478C108.612 6.48666 108.545 6.35806 108.5 6.21658C108.455 6.07511 108.433 5.92363 108.435 5.77111C108.434 5.62066 108.457 5.47154 108.502 5.33244C108.547 5.19244 108.613 5.06644 108.697 4.95911C108.778 4.84856 108.876 4.76087 108.985 4.70186C109.094 4.64286 109.212 4.61389 109.33 4.61689C109.449 4.61458 109.566 4.64386 109.675 4.70282C109.785 4.76179 109.883 4.84911 109.963 4.95911C110.091 5.11941 110.178 5.32409 110.213 5.54709C110.248 5.77009 110.23 6.00132 110.161 6.21133C110.115 6.35056 110.048 6.47733 109.963 6.58311C109.881 6.68984 109.782 6.77472 109.674 6.83281C109.565 6.8909 109.448 6.92103 109.33 6.92144C109.212 6.92129 109.095 6.89128 108.987 6.83318C108.878 6.77507 108.78 6.69005 108.697 6.58311V6.59478ZM109.927 10.2962V21.35H108.721V10.2962H109.927ZM111.495 11.6418V10.2962H113.023V7.18511H114.228V10.2962H116.559V11.6418H114.228V21.3166H113.023V11.641H111.495V11.6418ZM126.551 10.2962V21.35H125.345V19.1582C124.97 19.9288 124.44 20.5589 123.808 20.9837C122.936 21.5475 121.945 21.7507 120.977 21.5647C120.008 21.3787 119.11 20.8128 118.409 19.9469C117.979 19.4087 117.637 18.768 117.404 18.0618C117.17 17.3556 117.05 16.5979 117.049 15.8324C117.049 15.0668 117.169 14.3087 117.403 13.6022C117.636 12.8957 117.978 12.255 118.409 11.7172C119.11 10.8513 120.008 10.2855 120.977 10.0994C121.945 9.91343 122.936 10.1166 123.808 10.6804C124.441 11.1053 124.972 11.737 125.345 12.5098V10.3141L126.551 10.2962ZM121.815 11.3594C121.348 11.3491 120.884 11.4586 120.452 11.6813C120.019 11.904 119.627 12.2353 119.299 12.6552C118.801 13.2774 118.462 14.0733 118.324 14.9409C118.187 15.8085 118.257 16.7083 118.527 17.5249C118.706 18.067 118.968 18.5593 119.299 18.9716C119.968 19.8019 120.869 20.267 121.806 20.267C122.744 20.267 123.644 19.8019 124.314 18.9716C124.645 18.5589 124.907 18.0672 125.086 17.5251C125.265 16.983 125.357 16.4013 125.357 15.8138C125.357 15.2263 125.265 14.6448 125.086 14.1027C124.907 13.5607 124.644 13.069 124.314 12.656C123.989 12.2372 123.599 11.9063 123.17 11.6834C122.74 11.4606 122.279 11.3503 121.815 11.3594ZM130.391 4.61611V21.3166H129.185V4.61611H130.391ZM15.0619 19.9858C14.6382 19.4742 14.3009 18.8593 14.0705 18.1781C13.84 17.497 13.7212 16.7639 13.7212 16.023C13.7212 15.2821 13.84 14.549 14.0705 13.8679C14.3009 13.1867 14.6382 12.5718 15.0619 12.0602C15.9647 11.0269 17.1389 10.4546 18.3566 10.4546C19.5743 10.4546 20.7485 11.0269 21.6513 12.0602C22.075 12.5718 22.4123 13.1867 22.6428 13.8679C22.8732 14.549 22.992 15.2821 22.992 16.023C22.992 16.7639 22.8732 17.497 22.6428 18.1781C22.4123 18.8593 22.075 19.4742 21.6513 19.9858C20.7485 21.0187 19.5744 21.5907 18.3569 21.5907C17.1394 21.5907 15.9647 21.0187 15.0619 19.9858ZM16.7471 14.0086C16.5358 14.2716 16.3681 14.5852 16.2536 14.931C16.1391 15.2769 16.0801 15.6481 16.0801 16.023C16.0801 16.3979 16.1391 16.7691 16.2536 17.115C16.3681 17.4608 16.5358 17.7744 16.7471 18.0374C17.1778 18.5608 17.7519 18.853 18.3492 18.853C18.9465 18.853 19.5206 18.5608 19.9514 18.0374C20.1639 17.7753 20.3328 17.462 20.4481 17.1161C20.5634 16.7701 20.6228 16.3984 20.6228 16.023C20.6228 15.6476 20.5634 15.2759 20.4481 14.9299C20.3328 14.584 20.1639 14.2707 19.9514 14.0086C19.7412 13.7444 19.4913 13.5362 19.2164 13.396C18.9416 13.2559 18.6474 13.1868 18.3511 13.1927C18.0543 13.1884 17.7599 13.2583 17.4846 13.3985C17.2093 13.5386 16.9587 13.7454 16.7471 14.0086ZM30.5433 10.8414L29.8803 13.601C29.5141 13.3326 29.0981 13.1919 28.6749 13.1934C28.4239 13.1776 28.1738 13.2431 27.9485 13.3839C27.7232 13.5246 27.5301 13.7359 27.3876 13.9977C27.0681 14.6269 26.9112 15.3662 26.9386 16.1132V21.3166H24.569V10.7271H26.9325V11.9506C27.1744 11.4864 27.5045 11.1065 27.8926 10.8454C28.2807 10.5844 28.7144 10.4507 29.154 10.4564C29.6348 10.4447 30.1104 10.5766 30.5433 10.8414ZM31.2672 13.4633V10.7271H32.611V7.73811H34.9745V10.7271H36.9279V13.4641H34.9776V21.3166H32.6141V13.4633H31.2672ZM45.9705 21.3166H43.6076V15.0726C43.6171 14.8063 43.585 14.5402 43.513 14.2897C43.441 14.0392 43.3306 13.8091 43.1882 13.6127C42.8972 13.2582 42.5089 13.0601 42.1048 13.0601C41.7008 13.0601 41.3124 13.2582 41.0215 13.6127C40.8785 13.8088 40.7675 14.0388 40.695 14.2893C40.6225 14.5398 40.5899 14.806 40.5989 15.0726V21.3166H38.2391V4.34233H40.5989V11.8588C40.8972 11.4052 41.2731 11.0432 41.6982 10.8003C42.1233 10.5573 42.5866 10.4398 43.0529 10.4564C43.4389 10.4453 43.8226 10.535 44.18 10.72C44.5373 10.9049 44.8607 11.1811 45.1298 11.5313C45.4142 11.9084 45.6353 12.3544 45.7798 12.8424C45.9243 13.3305 45.9892 13.8504 45.9705 14.371V21.3166ZM48.2646 5.474H50.8809V18.2863H55.3152V21.3352H48.264L48.2646 5.474ZM58.7298 7.97456C58.5954 8.14276 58.4358 8.27551 58.2604 8.3651C58.0851 8.45469 57.8974 8.49934 57.7083 8.49644C57.5187 8.49907 57.3307 8.45315 57.1556 8.36145C56.9804 8.26975 56.8218 8.13418 56.6892 7.96289C56.553 7.79741 56.4447 7.59886 56.3707 7.37913C56.2967 7.15941 56.2585 6.92305 56.2585 6.68422C56.2585 6.4454 56.2967 6.20903 56.3707 5.98931C56.4447 5.76959 56.553 5.57103 56.6892 5.40556C56.961 5.06632 57.3276 4.87612 57.7095 4.87612C58.0914 4.87612 58.458 5.06632 58.7298 5.40556C58.8674 5.56985 58.9764 5.76847 59.0501 5.98885C59.1238 6.20922 59.1605 6.44654 59.1579 6.68578C59.1599 6.92617 59.1229 7.16454 59.0493 7.38618C58.9757 7.60783 58.867 7.80807 58.7298 7.97456ZM58.8897 10.738V21.3158H56.5207V10.7279L58.8897 10.7388V10.738ZM68.7855 21.3166H66.4225V15.0726C66.4319 14.8059 66.3994 14.5394 66.3269 14.2887C66.2544 14.038 66.1433 13.808 66 13.6119C65.7096 13.2572 65.3216 13.059 64.9179 13.059C64.5141 13.059 64.1262 13.2572 63.8357 13.6119C63.5476 14.0088 63.3958 14.5342 63.4138 15.0726V21.3166H61.0417V10.7256H63.4052V11.8689C63.703 11.4147 64.0787 11.0524 64.5038 10.8094C64.9289 10.5664 65.3923 10.4492 65.8586 10.4666C66.2446 10.4554 66.6283 10.5451 66.9857 10.73C67.3431 10.915 67.6664 11.1912 67.9355 11.5414C68.2198 11.9188 68.4408 12.3649 68.5853 12.8531C68.7298 13.3412 68.7947 13.8612 68.7762 14.3819L68.7855 21.3166ZM73.2075 4.34233V15.3969L77.0175 10.4564L78.8774 11.9506L75.8115 15.7282L79.2298 20.097L77.2974 21.5903L73.2161 16.0028V21.3166H70.8532V4.34233H73.2075ZM6.78494 14.238L1.27802 5.768V19.7944H0L1.80571 22.6046L3.61019 19.7944H2.30019V9.10778L13.223 26.0283V24.2511L8.68721 17.1648L6.78494 14.238ZM6.44176 11.7903L11.9487 20.2564V6.23233H13.223L11.4173 3.423L9.61159 6.23233H10.9228V16.9213L0 0V1.77644L4.53641 8.862L6.44176 11.7903Z" fill="white"/>
</g>
<defs>
<clipPath id="clip0_84_135">
<rect width="131" height="28" fill="white"/>
</clipPath>
</defs>
</svg>
